<svg width="1284" height="662" viewBox="0 0 1284 662" fill="none" xmlns="http://www.w3.org/2000/svg">
<rect x="105.231" y="240.238" width="525.321" height="19.2191" fill="#4301FF"/>
<path d="M7 369.433H1284L1094.48 588.851H7V369.433Z" fill="#4301FF"/>
<path d="M7 597.926H1090.74L1035.44 661.99H7V597.926Z" fill="#4301FF"/>
<path d="M7 326.724H1179.36L1154.81 363.027H7V326.724Z" fill="#4301FF"/>
<rect x="7" y="265.864" width="926.786" height="54.454" fill="#4301FF"/>
<rect x="773.627" width="10.6773" height="259.457" fill="#4301FF"/>
<rect x="827.013" y="144.759" width="10.6773" height="93.9599" transform="rotate(90 827.013 144.759)" fill="#4301FF"/>
<rect x="813.133" y="61.9281" width="10.6773" height="68.3344" transform="rotate(90 813.133 61.9281)" fill="#4301FF"/>
<path d="M940.192 320.318H1095.01L1060.93 279.744H940.192V320.318Z" fill="#4301FF"/>
<path fill-rule="evenodd" clip-rule="evenodd" d="M852.639 6.40637H788.575V19.2191H788.575V32.0317H852.639L838.536 19.219L852.639 6.40637Z" fill="#4301FF"/>
<circle cx="72.6654" cy="293.091" r="10.1434" fill="white"/>
<circle cx="179.438" cy="293.091" r="10.1434" fill="white"/>
<circle cx="286.21" cy="293.091" r="10.1434" fill="white"/>
<circle cx="392.983" cy="293.091" r="10.1434" fill="white"/>
<circle cx="499.755" cy="293.091" r="10.1434" fill="white"/>
<circle cx="606.528" cy="293.091" r="10.1434" fill="white"/>
<circle cx="713.301" cy="293.091" r="10.1434" fill="white"/>
<circle cx="820.073" cy="293.091" r="10.1434" fill="white"/>
<line x1="825.737" y1="145.995" x2="1038.71" y2="281.413" stroke="#4301FF" stroke-width="3.20318"/>
<path d="M845.164 175.79L846.122 160.289L859.068 168.868L845.164 175.79Z" fill="#4301FF"/>
<path d="M871.858 192.873L872.815 177.372L885.761 185.952L871.858 192.873Z" fill="#4301FF"/>
<path d="M900.686 211.025L901.644 195.524L914.59 204.103L900.686 211.025Z" fill="#4301FF"/>
<path d="M927.379 228.108L928.337 212.607L941.283 221.187L927.379 228.108Z" fill="#4301FF"/>
<path d="M956.548 246.936L957.272 231.423L970.345 239.806L956.548 246.936Z" fill="#4301FF"/>
<path d="M985.474 264.902L986.432 249.401L999.377 257.981L985.474 264.902Z" fill="#4301FF"/>
<mask id="path-26-outside-1_338_1227" maskUnits="userSpaceOnUse" x="512.508" y="111.518" width="132" height="155" fill="black">
<rect fill="white" x="512.508" y="111.518" width="132" height="155"/>
<path fill-rule="evenodd" clip-rule="evenodd" d="M528.543 118.518H576.905H579.562H627.924L636.959 259.457H579.562H576.905H519.508L528.543 118.518Z"/>
</mask>
<path fill-rule="evenodd" clip-rule="evenodd" d="M528.543 118.518H576.905H579.562H627.924L636.959 259.457H579.562H576.905H519.508L528.543 118.518Z" fill="#4301FF"/>
<path d="M528.543 118.518V112.111H522.534L522.15 118.108L528.543 118.518ZM627.924 118.518L634.317 118.108L633.933 112.111H627.924V118.518ZM636.959 259.457V265.864H643.789L643.352 259.048L636.959 259.457ZM519.508 259.457L513.115 259.048L512.678 265.864H519.508V259.457ZM576.905 112.111H528.543V124.924H576.905V112.111ZM576.905 124.924H579.562V112.111H576.905V124.924ZM579.562 124.924H627.924V112.111H579.562V124.924ZM621.531 118.927L630.565 259.867L643.352 259.048L634.317 118.108L621.531 118.927ZM636.959 253.051H579.562V265.864H636.959V253.051ZM579.562 253.051H576.905V265.864H579.562V253.051ZM519.508 265.864H576.905V253.051H519.508V265.864ZM522.15 118.108L513.115 259.048L525.902 259.867L534.936 118.927L522.15 118.108Z" fill="white" mask="url(#path-26-outside-1_338_1227)"/>
<line x1="519.508" y1="134.533" x2="630.552" y2="134.533" stroke="white" stroke-width="6.40635"/>
<mask id="path-29-outside-2_338_1227" maskUnits="userSpaceOnUse" x="256.254" y="111.518" width="132" height="155" fill="black">
<rect fill="white" x="256.254" y="111.518" width="132" height="155"/>
<path fill-rule="evenodd" clip-rule="evenodd" d="M272.289 118.518H320.651H323.307H371.67L380.704 259.457H323.307H320.651H263.254L272.289 118.518Z"/>
</mask>
<path fill-rule="evenodd" clip-rule="evenodd" d="M272.289 118.518H320.651H323.307H371.67L380.704 259.457H323.307H320.651H263.254L272.289 118.518Z" fill="#4301FF"/>
<path d="M272.289 118.518V112.111H266.28L265.895 118.108L272.289 118.518ZM371.67 118.518L378.063 118.108L377.678 112.111H371.67V118.518ZM380.704 259.457V265.864H387.534L387.097 259.048L380.704 259.457ZM263.254 259.457L256.861 259.048L256.424 265.864H263.254V259.457ZM320.651 112.111H272.289V124.924H320.651V112.111ZM320.651 124.924H323.307V112.111H320.651V124.924ZM323.307 124.924H371.67V112.111H323.307V124.924ZM365.276 118.927L374.311 259.867L387.097 259.048L378.063 118.108L365.276 118.927ZM380.704 253.051H323.307V265.864H380.704V253.051ZM323.307 253.051H320.651V265.864H323.307V253.051ZM263.254 265.864H320.651V253.051H263.254V265.864ZM265.895 118.108L256.861 259.048L269.647 259.867L278.682 118.927L265.895 118.108Z" fill="white" mask="url(#path-29-outside-2_338_1227)"/>
<line x1="266.458" y1="134.533" x2="377.501" y2="134.533" stroke="white" stroke-width="6.40635"/>
<mask id="path-32-outside-3_338_1227" maskUnits="userSpaceOnUse" x="0" y="111.518" width="132" height="155" fill="black">
<rect fill="white" y="111.518" width="132" height="155"/>
<path fill-rule="evenodd" clip-rule="evenodd" d="M16.0346 118.518H64.3967H67.0535H115.416L124.45 259.457H67.0535H64.3967H7L16.0346 118.518Z"/>
</mask>
<path fill-rule="evenodd" clip-rule="evenodd" d="M16.0346 118.518H64.3967H67.0535H115.416L124.45 259.457H67.0535H64.3967H7L16.0346 118.518Z" fill="#4301FF"/>
<path d="M16.0346 118.518V112.111H10.0258L9.64137 118.108L16.0346 118.518ZM115.416 118.518L121.809 118.108L121.424 112.111H115.416V118.518ZM124.45 259.457V265.864H131.28L130.843 259.048L124.45 259.457ZM7 259.457L0.606767 259.048L0.169833 265.864H7V259.457ZM64.3967 112.111H16.0346V124.924H64.3967V112.111ZM64.3967 124.924H67.0535V112.111H64.3967V124.924ZM67.0535 124.924H115.416V112.111H67.0535V124.924ZM109.022 118.927L118.057 259.867L130.843 259.048L121.809 118.108L109.022 118.927ZM124.45 253.051H67.0535V265.864H124.45V253.051ZM67.0535 253.051H64.3967V265.864H67.0535V253.051ZM7 265.864H64.3967V253.051H7V265.864ZM9.64137 118.108L0.606767 259.048L13.3932 259.867L22.4278 118.927L9.64137 118.108Z" fill="white" mask="url(#path-32-outside-3_338_1227)"/>
<line x1="8.06787" y1="134.533" x2="119.111" y2="134.533" stroke="white" stroke-width="6.40635"/>
<line x1="113.773" y1="324.589" x2="113.773" y2="366.23" stroke="white" stroke-width="6.40635"/>
<line x1="216.274" y1="324.589" x2="216.274" y2="366.23" stroke="white" stroke-width="6.40635"/>
<line x1="319.844" y1="324.589" x2="319.844" y2="366.23" stroke="white" stroke-width="6.40635"/>
<line x1="422.345" y1="324.589" x2="422.345" y2="366.23" stroke="white" stroke-width="6.40635"/>
<line x1="525.915" y1="324.589" x2="525.915" y2="366.23" stroke="white" stroke-width="6.40635"/>
<line x1="628.417" y1="324.589" x2="628.417" y2="366.23" stroke="white" stroke-width="6.40635"/>
<line x1="731.986" y1="324.589" x2="731.986" y2="366.23" stroke="white" stroke-width="6.40635"/>
<line x1="834.487" y1="324.589" x2="834.487" y2="366.23" stroke="white" stroke-width="6.40635"/>
<line x1="938.057" y1="324.589" x2="938.057" y2="366.23" stroke="white" stroke-width="6.40635"/>
<path d="M1103.55 621.416L1133.45 632.094L1163.35 621.416L1193.24 632.094L1223.14 621.416" stroke="#4301FF" stroke-width="6" stroke-miterlimit="10"/>
<path d="M1278.66 648.11L1248.76 658.787L1218.87 648.11L1188.98 658.787L1159.08 648.11L1129.18 658.787L1099.28 648.11" stroke="#4301FF" stroke-width="6" stroke-miterlimit="10"/>
</svg>
